# xmcd
#
# Track frame offsets: 
#        150
#        17595
#        40015
#        56803
#        75747
#        93012
#        105752
#        119365
#        138778
#        157478
#        174506
#        193993
#
# Disc length: 2805 seconds
#
# Revision: 0
# Processed by: cddbd v1.5.2PL0 Copyright (c) Steve Scherf et al.
# Submitted via: ExactAudioCopy v0.99pb5
#
DISCID=940af30c
DTITLE=ricardo modrego y paco de lucia - dos guitarras flamencas en st
DTITLE=ereo
DYEAR=1964
DGENRE=Latin
TTITLE0=Jerez en fiestas. Bulerias
TTITLE1=En la Alcazaba. Taranto
TTITLE2=Gaditanas. Alegrias
TTITLE3=Tientos del amanecer. Tientos
TTITLE4=Guajira flamenca. Guajira
TTITLE5=Real de la Feria. Sevillanas
TTITLE6=Taconeo gitano. Zapateado
TTITLE7=Sortilegio. Petenera
TTITLE8=Seguiriya tradicional. Seguiriya
TTITLE9=Entre arrayanes. Fandangos
TTITLE10=Fuente de Carmona. Solea-cana
TTITLE11=La Caleta. Verdiales
EXTD=
EXTT0=
EXTT1=
EXTT2=
EXTT3=
EXTT4=
EXTT5=
EXTT6=
EXTT7=
EXTT8=
EXTT9=
EXTT10=
EXTT11=
PLAYORDER=
